<svg width="17" height="14" viewBox="0 0 17 14" fill="none" xmlns="http://www.w3.org/2000/svg">
<path d="M12.563 2.8175C12.6837 2.94 12.75 3.10713 12.75 3.28125V5.46875C12.75 5.6428 12.6828 5.80972 12.5633 5.93279C12.4437 6.05586 12.2816 6.125 12.1125 6.125C11.9434 6.125 11.7813 6.05586 11.6617 5.93279C11.5422 5.80972 11.475 5.6428 11.475 5.46875V4.865L10.013 6.37C9.95416 6.43265 9.8838 6.48261 9.806 6.51696C9.72821 6.55132 9.64455 6.56938 9.5599 6.5701C9.47526 6.57081 9.39132 6.55417 9.31299 6.52113C9.23466 6.4881 9.1635 6.43934 9.10367 6.37769C9.04385 6.31604 8.99654 6.24275 8.96452 6.16208C8.93251 6.08142 8.91642 5.995 8.91719 5.90786C8.91797 5.82072 8.93559 5.73462 8.96904 5.65457C9.00249 5.57452 9.05109 5.50213 9.112 5.44162L10.574 3.9375H9.9875C9.81843 3.9375 9.65627 3.86836 9.53672 3.74529C9.41717 3.62222 9.35 3.4553 9.35 3.28125C9.35 3.1072 9.41717 2.94028 9.53672 2.81721C9.65627 2.69414 9.81843 2.625 9.9875 2.625H12.1125C12.2815 2.62515 12.4436 2.69439 12.563 2.8175Z" fill="#AEAEAE"/>
<path d="M4.25 10.7188C4.25 10.8928 4.31716 11.0597 4.43672 11.1828C4.55627 11.3059 4.71842 11.375 4.8875 11.375H7.01335C7.18243 11.375 7.34458 11.3059 7.46413 11.1828C7.58369 11.0597 7.65085 10.8928 7.65085 10.7188C7.65085 10.5447 7.58369 10.3778 7.46413 10.2547C7.34458 10.1316 7.18243 10.0625 7.01335 10.0625H6.42685L7.88885 8.5575C8.00492 8.43367 8.0691 8.26787 8.06757 8.09581C8.06604 7.92374 7.99892 7.75917 7.88067 7.63756C7.76241 7.51594 7.60249 7.447 7.43534 7.44559C7.26818 7.44417 7.10718 7.5104 6.987 7.63L5.525 9.13325V8.5295C5.525 8.35545 5.45783 8.18853 5.33828 8.06546C5.21873 7.94239 5.05658 7.87325 4.8875 7.87325C4.71842 7.87325 4.55627 7.94239 4.43672 8.06546C4.31716 8.18853 4.25 8.35545 4.25 8.5295V10.7188Z" fill="#AEAEAE"/>
<path d="M0 2.40625C0 1.76807 0.246272 1.15603 0.684638 0.704774C1.123 0.253515 1.71756 0 2.3375 0H14.6625C15.2824 0 15.877 0.253515 16.3154 0.704774C16.7537 1.15603 17 1.76807 17 2.40625V11.5938C17 11.9097 16.9395 12.2226 16.8221 12.5146C16.7046 12.8065 16.5324 13.0718 16.3154 13.2952C16.0983 13.5187 15.8406 13.6959 15.557 13.8168C15.2734 13.9378 14.9695 14 14.6625 14H2.3375C2.03054 14 1.72658 13.9378 1.44298 13.8168C1.15938 13.6959 0.901695 13.5187 0.684638 13.2952C0.467581 13.0718 0.295402 12.8065 0.177932 12.5146C0.0604612 12.2226 0 11.9097 0 11.5938V2.40625ZM2.3375 1.3125C1.751 1.3125 1.275 1.8025 1.275 2.40625V11.5938C1.275 12.1975 1.751 12.6875 2.3375 12.6875H14.6625C15.249 12.6875 15.725 12.1975 15.725 11.5938V2.40625C15.725 1.8025 15.249 1.3125 14.6625 1.3125H2.3375Z" fill="#AEAEAE"/>
</svg>
