<?xml version="1.0" standalone="no"?>
<!DOCTYPE svg PUBLIC "-//W3C//DTD SVG 20010904//EN"
 "http://www.w3.org/TR/2001/REC-SVG-20010904/DTD/svg10.dtd">
<svg version="1.0" xmlns="http://www.w3.org/2000/svg"
 width="512.000000pt" height="512.000000pt" viewBox="0 0 512.000000 512.000000"
 preserveAspectRatio="xMidYMid meet">

<g transform="translate(0.000000,512.000000) scale(0.100000,-0.100000)"
fill="#000000" stroke="none">
<path d="M270 4953 c-37 -14 -74 -49 -91 -87 -17 -39 -19 -79 -19 -709 0 -726
-2 -705 56 -759 48 -43 86 -48 421 -48 l313 0 2 -1537 c3 -1532 3 -1538 24
-1573 11 -19 38 -45 60 -57 l39 -23 1485 0 1485 0 39 23 c22 12 49 38 60 57
21 35 21 41 24 1573 l2 1537 313 0 c335 0 373 5 421 48 58 54 56 33 56 759 0
630 -2 670 -19 709 -10 23 -34 52 -52 65 l-34 24 -2285 2 c-1257 1 -2292 -1
-2300 -4z m4368 -795 l-3 -483 -232 -3 -233 -2 0 165 0 165 45 0 c83 0 149 55
160 135 9 59 -22 125 -73 157 l-37 23 -1705 0 -1705 0 -37 -23 c-51 -32 -82
-98 -73 -157 11 -80 77 -135 160 -135 l45 0 0 -165 0 -165 -232 2 -233 3 -3
483 -2 482 2080 0 2080 0 -2 -482z m-1538 -1918 l0 -1760 -915 0 -915 0 0
1760 0 1760 915 0 915 0 0 -1760z m750 0 l0 -1760 -215 0 -215 0 0 1760 0
1760 215 0 215 0 0 -1760z"/>
<path d="M1695 1596 c-41 -18 -83 -69 -90 -109 -3 -18 -5 -157 -3 -309 3 -261
4 -278 24 -304 39 -53 71 -69 134 -69 63 0 95 16 134 69 20 26 21 40 21 331 0
291 -1 305 -21 331 -11 15 -32 37 -46 47 -33 25 -113 32 -153 13z"/>
</g>
</svg>
