<?xml version="1.0" standalone="no"?>
<!DOCTYPE svg PUBLIC "-//W3C//DTD SVG 20010904//EN"
 "http://www.w3.org/TR/2001/REC-SVG-20010904/DTD/svg10.dtd">
<svg version="1.0" xmlns="http://www.w3.org/2000/svg"
 width="512.000000pt" height="512.000000pt" viewBox="0 0 512.000000 512.000000"
 preserveAspectRatio="xMidYMid meet">

<g transform="translate(0.000000,512.000000) scale(0.100000,-0.100000)"
fill="#000000" stroke="none">
<path d="M2510 4953 c-8 -3 -523 -296 -1145 -651 -683 -389 -1143 -657 -1162
-677 -73 -77 -48 -202 51 -249 31 -14 137 -16 1090 -16 l1056 0 0 -560 0 -560
-589 -2 c-578 -3 -590 -3 -617 -24 -53 -39 -69 -71 -69 -134 0 -63 16 -95 69
-134 27 -21 39 -21 617 -24 l589 -2 0 -720 0 -719 -189 -3 c-173 -3 -192 -5
-217 -24 -53 -39 -69 -71 -69 -134 0 -63 16 -95 69 -134 27 -21 38 -21 566
-21 528 0 539 0 566 21 53 39 69 71 69 134 0 63 -16 95 -69 134 -25 19 -44 21
-217 24 l-189 3 0 719 0 720 589 2 c578 3 590 3 617 24 53 39 69 71 69 134 0
63 -16 95 -69 134 -27 21 -39 21 -617 24 l-589 2 0 560 0 560 1055 0 c869 0
1061 2 1088 14 99 41 128 177 54 251 -18 17 -543 323 -1167 680 -972 555
-1141 649 -1180 651 -25 2 -52 1 -60 -3z m874 -808 l805 -460 -815 -3 c-448
-1 -1180 -1 -1628 0 l-815 3 807 462 c444 254 815 461 824 460 10 -1 379 -209
822 -462z"/>
<path d="M255 2786 c-41 -18 -83 -69 -90 -109 -3 -18 -4 -568 -3 -1224 3
-1186 3 -1192 24 -1219 39 -53 71 -69 134 -69 63 0 95 16 134 69 20 26 21 43
24 297 l3 269 319 0 319 0 3 -269 c3 -254 4 -271 24 -297 39 -53 71 -69 134
-69 63 0 95 16 134 69 20 27 21 41 24 473 2 277 -1 466 -8 501 -24 132 -123
269 -239 331 -104 55 -147 61 -443 61 l-268 0 -2 549 c-3 537 -3 550 -24 577
-11 15 -32 37 -46 47 -33 25 -113 32 -153 13z m791 -1532 c39 -28 63 -63 70
-101 l7 -33 -322 0 -321 0 0 80 0 81 269 -3 c254 -3 271 -4 297 -24z"/>
<path d="M4735 2786 c-37 -17 -70 -52 -84 -89 -7 -19 -11 -208 -11 -563 l0
-534 -268 0 c-290 0 -335 -6 -434 -56 -116 -59 -220 -196 -248 -327 -7 -35
-10 -203 -8 -504 3 -438 4 -452 24 -479 39 -53 71 -69 134 -69 63 0 95 16 134
69 20 26 21 43 24 297 l3 269 319 0 319 0 3 -269 c3 -254 4 -271 24 -297 39
-53 71 -69 134 -69 63 0 95 16 134 69 21 27 21 31 21 1246 0 1215 0 1219 -21
1246 -11 15 -32 37 -46 47 -34 25 -113 32 -153 13z m-95 -1586 l0 -80 -320 0
c-271 0 -320 2 -320 14 0 25 21 70 43 95 43 47 65 50 340 51 l257 0 0 -80z"/>
</g>
</svg>
