<svg width="14" height="14" viewBox="0 0 14 14" fill="none" xmlns="http://www.w3.org/2000/svg">
<path d="M10.5 14H0.875C0.642936 14 0.420376 13.9052 0.256282 13.7365C0.0921874 13.5678 0 13.3389 0 13.1003V6.02854C2.28554e-06 5.79521 0.088162 5.571 0.245875 5.40324L5.05838 0.274869C5.13999 0.187932 5.23779 0.118788 5.34595 0.0715634C5.45412 0.0243385 5.57043 0 5.68794 0C5.80545 0 5.92176 0.0243385 6.02992 0.0715634C6.13808 0.118788 6.23589 0.187932 6.3175 0.274869L8.7675 2.88404L7.51625 4.14544L5.6875 2.19576L1.75 6.38842V12.1961H11.375V13.0958C11.3756 13.2143 11.3534 13.3318 11.3097 13.4415C11.2659 13.5512 11.2016 13.6509 11.1203 13.7349C11.039 13.8189 10.9423 13.8856 10.8359 13.9311C10.7294 13.9766 10.6153 14 10.5 14ZM9.002 10.4011L6.63425 7.97192L7.875 6.69613L9.0055 7.85766L12.768 3.99608L14 5.27098L9.002 10.3993V10.4011Z" fill="#AEAEAE"/>
</svg>
