<?xml version="1.0" standalone="no"?>
<!DOCTYPE svg PUBLIC "-//W3C//DTD SVG 20010904//EN"
 "http://www.w3.org/TR/2001/REC-SVG-20010904/DTD/svg10.dtd">
<svg version="1.0" xmlns="http://www.w3.org/2000/svg"
 width="512.000000pt" height="512.000000pt" viewBox="0 0 512.000000 512.000000"
 preserveAspectRatio="xMidYMid meet">

<g transform="translate(0.000000,512.000000) scale(0.100000,-0.100000)"
fill="#000000" stroke="none">
<path d="M2445 4148 c-27 -5 -86 -27 -131 -48 -263 -127 -382 -440 -270 -710
15 -36 28 -69 29 -73 1 -5 -50 -24 -114 -42 -630 -183 -1120 -591 -1404 -1170
-114 -230 -187 -474 -216 -721 l-12 -102 -38 -6 c-49 -8 -106 -57 -119 -104
-8 -25 -10 -184 -8 -474 3 -423 4 -437 24 -464 11 -15 33 -37 48 -48 l27 -21
2299 0 2299 0 27 21 c15 11 37 33 48 48 20 27 21 41 24 464 2 290 0 449 -8
474 -13 47 -70 96 -119 104 l-38 6 -12 102 c-66 557 -353 1090 -781 1448 -242
203 -540 361 -835 442 -55 15 -106 29 -113 32 -9 3 -7 14 8 45 29 56 60 182
60 244 0 86 -19 166 -61 252 -108 226 -359 349 -614 301z m189 -320 c55 -16
138 -99 154 -154 28 -94 -1 -191 -77 -255 -65 -56 -140 -72 -225 -47 -55 16
-138 99 -154 154 -28 94 -8 169 63 239 70 71 145 90 239 63z m116 -799 c601
-61 1130 -396 1453 -919 131 -212 235 -517 262 -767 l7 -63 -1912 0 -1912 0 7
63 c62 566 402 1101 895 1408 241 150 560 256 845 282 89 8 259 6 355 -4z
m1890 -2309 l0 -240 -2080 0 -2080 0 0 240 0 240 2080 0 2080 0 0 -240z"/>
<path d="M2970 2788 c-100 -51 -119 -181 -38 -256 14 -13 65 -38 114 -56 354
-132 638 -387 809 -726 24 -47 54 -95 66 -107 52 -48 122 -55 183 -20 82 46
100 129 53 235 -191 424 -581 775 -1031 928 -86 30 -100 30 -156 2z"/>
</g>
</svg>
